<?xml version="1.0" standalone="no"?>
<!DOCTYPE svg PUBLIC "-//W3C//DTD SVG 1.0//EN" "http://www.w3.org/TR/2001/REC-SVG-20010904/DTD/svg10.dtd">
<svg xmlns="http://www.w3.org/2000/svg" xmlns:xlink="http://www.w3.org/1999/xlink" id="body_1" width="21" height="21">

<g transform="matrix(0.9130435 0 0 0.9130435 0 0)">
    <path transform="matrix(0.04492188 0 0 0.04492188 0 0)"  d="M0 0L1024 0L1024 768L0 768L0 0z" stroke="none" fill="none" />
    <path transform="matrix(0.04492188 0 0 0.04492188 0 0)"  d="M113.47 309.408L95.648 375.94L30.509 377.318C 11.042 341.211 0 299.9 0 256C 0 213.549 10.324 173.517 28.624 138.268L28.624 138.268L28.638 138.268L86.63 148.9L112.034 206.544C 106.717 222.045 103.819 238.685 103.819 256C 103.821 274.792 107.225 292.797 113.47 309.408z" stroke="none" fill="#FFFFFF" fill-rule="nonzero" />
    <path transform="matrix(0.04492188 0 0 0.04492188 0 0)"  d="M507.527 208.176C 510.467 223.662 512 239.655 512 256C 512 274.328 510.073 292.206 506.402 309.451C 493.94 368.134 461.377 419.376 416.268 455.638L416.268 455.638L416.254 455.624L343.21 451.897L332.872 387.362C 362.804 369.808 386.196 342.337 398.518 309.451L398.518 309.451L261.628 309.451L261.628 208.176L400.515 208.176L507.527 208.176z" stroke="none" fill="#FFFFFF" fill-rule="nonzero" />
    <path transform="matrix(0.04492188 0 0 0.04492188 0 0)"  d="M416.253 455.624L416.267 455.638C 372.396 490.901 316.666 512 256 512C 158.509 512 73.748 457.509 30.509 377.319L30.509 377.319L113.47 309.409C 135.089 367.107 190.748 408.18 256 408.18C 284.047 408.18 310.323 400.598 332.87 387.362L332.87 387.362L416.253 455.624z" stroke="none" fill="#FFFFFF" fill-rule="nonzero" />
    <path transform="matrix(0.04492188 0 0 0.04492188 0 0)"  d="M419.404 58.936L336.471 126.832C 313.136 112.246 285.552 103.82 256 103.82C 189.271 103.82 132.571 146.777 112.035 206.544L112.035 206.544L28.638 138.268L28.624 138.268C 71.23 56.123 157.06 0 256 0C 318.115 0 375.068 22.126 419.404 58.936z" stroke="none" fill="#FFFFFF" fill-rule="nonzero" />
</g>
</svg>